<svg xmlns="http://www.w3.org/2000/svg" xmlns:xlink="http://www.w3.org/1999/xlink" width="250" zoomAndPan="magnify" viewBox="0 0 398.88 284.999983" height="100" preserveAspectRatio="xMidYMid meet" version="1.0"><defs><g/><clipPath id="1fc9144663"><path d="M 192 86 L 207.023438 86 L 207.023438 88 L 192 88 Z M 192 86 " clip-rule="nonzero"/></clipPath><clipPath id="a78ce56031"><path d="M 129 38.085938 L 192 38.085938 L 192 102 L 129 102 Z M 129 38.085938 " clip-rule="nonzero"/></clipPath><clipPath id="e2e7d8fdd9"><path d="M 77.675781 77 L 129 77 L 129 246.523438 L 77.675781 246.523438 Z M 77.675781 77 " clip-rule="nonzero"/></clipPath></defs><g clip-path="url(#1fc9144663)"><path fill="#ffffff" d="M 192.292969 86.042969 L 207.023438 87.386719 L 192.292969 87.285156 Z M 192.292969 86.042969 " fill-opacity="1" fill-rule="nonzero"/></g><path fill="#ffffff" d="M 184.757812 85.425781 L 184.757812 87.300781 L 136.78125 87.007812 L 136.816406 81.050781 Z M 184.757812 85.425781 " fill-opacity="1" fill-rule="nonzero"/><g clip-path="url(#a78ce56031)"><path fill="#ffffff" d="M 131.234375 96.121094 C 131.25 88.988281 131.335938 64.996094 131.234375 62.363281 C 131.164062 60.640625 132.183594 52.871094 138.355469 46.484375 C 143.679688 40.972656 151.148438 38.179688 160.554688 38.179688 C 188.75 38.179688 190.097656 63.929688 190.097656 64.238281 L 190.097656 96.101562 C 190.945312 96.652344 191.515625 97.617188 191.515625 98.703125 C 191.515625 100.425781 190.117188 101.820312 188.386719 101.820312 C 186.660156 101.820312 185.257812 100.425781 185.257812 98.703125 C 185.257812 97.445312 186 96.378906 187.089844 95.878906 L 187.089844 64.292969 C 187.054688 63.34375 185.878906 41.160156 160.535156 41.160156 C 151.980469 41.160156 145.238281 43.640625 140.5 48.550781 C 135.503906 53.714844 134.15625 60.398438 134.222656 62.242188 C 134.328125 64.929688 134.257812 88.421875 134.242188 95.878906 C 135.3125 96.378906 136.074219 97.445312 136.074219 98.703125 C 136.074219 100.425781 134.671875 101.820312 132.945312 101.820312 C 131.214844 101.820312 129.816406 100.425781 129.816406 98.703125 C 129.816406 97.617188 130.386719 96.671875 131.234375 96.121094 Z M 131.234375 96.121094 " fill-opacity="1" fill-rule="nonzero"/></g><g clip-path="url(#e2e7d8fdd9)"><path fill="#ffffff" d="M 90.554688 81.117188 L 92.578125 77.089844 L 93.40625 77.15625 L 110.46875 78.707031 L 128.761719 80.378906 L 128.710938 86.957031 L 105.164062 86.820312 C 64.3125 155.230469 109.675781 244.496094 110.660156 246.425781 C 62.84375 179.203125 76.464844 104.109375 90.554688 81.117188 Z M 90.554688 81.117188 " fill-opacity="1" fill-rule="nonzero"/></g><g fill="#ffffff" fill-opacity="1"><g transform="translate(108.842509, 164.109112)"><g><path d="M 8.75 -27.9375 L 8.75 -18.484375 L 19.875 -18.484375 L 19.875 -14.171875 L 8.75 -14.171875 L 8.75 -4.3125 L 21.265625 -4.3125 L 21.265625 0 L 3.46875 0 L 3.46875 -32.25 L 21.265625 -32.25 L 21.265625 -27.9375 Z M 8.75 -27.9375 "/></g></g></g><g fill="#ffffff" fill-opacity="1"><g transform="translate(133.115209, 164.109112)"><g><path d="M 8.75 -34.28125 L 8.75 0 L 3.46875 0 L 3.46875 -34.28125 Z M 8.75 -34.28125 "/></g></g></g><g fill="#ffffff" fill-opacity="1"><g transform="translate(145.344199, 164.109112)"><g><path d="M 26.875 -13.390625 C 26.875 -12.429688 26.8125 -11.566406 26.6875 -10.796875 L 7.1875 -10.796875 C 7.332031 -8.753906 8.082031 -7.113281 9.4375 -5.875 C 10.800781 -4.644531 12.472656 -4.03125 14.453125 -4.03125 C 17.296875 -4.03125 19.304688 -5.21875 20.484375 -7.59375 L 26.171875 -7.59375 C 25.398438 -5.25 24.003906 -3.328125 21.984375 -1.828125 C 19.960938 -0.328125 17.453125 0.421875 14.453125 0.421875 C 12.015625 0.421875 9.828125 -0.125 7.890625 -1.21875 C 5.960938 -2.320312 4.453125 -3.867188 3.359375 -5.859375 C 2.265625 -7.847656 1.71875 -10.15625 1.71875 -12.78125 C 1.71875 -15.40625 2.25 -17.710938 3.3125 -19.703125 C 4.375 -21.703125 5.867188 -23.238281 7.796875 -24.3125 C 9.734375 -25.394531 11.953125 -25.9375 14.453125 -25.9375 C 16.859375 -25.9375 19.003906 -25.410156 20.890625 -24.359375 C 22.773438 -23.316406 24.242188 -21.84375 25.296875 -19.9375 C 26.347656 -18.039062 26.875 -15.859375 26.875 -13.390625 Z M 21.359375 -15.0625 C 21.328125 -17 20.628906 -18.554688 19.265625 -19.734375 C 17.910156 -20.910156 16.226562 -21.5 14.21875 -21.5 C 12.394531 -21.5 10.832031 -20.914062 9.53125 -19.75 C 8.238281 -18.59375 7.472656 -17.03125 7.234375 -15.0625 Z M 21.359375 -15.0625 "/></g></g></g><g fill="#ffffff" fill-opacity="1"><g transform="translate(173.92484, 164.109112)"><g><path d="M 1.71875 -12.78125 C 1.71875 -15.40625 2.25 -17.710938 3.3125 -19.703125 C 4.375 -21.703125 5.847656 -23.238281 7.734375 -24.3125 C 9.617188 -25.394531 11.78125 -25.9375 14.21875 -25.9375 C 17.3125 -25.9375 19.867188 -25.203125 21.890625 -23.734375 C 23.910156 -22.273438 25.273438 -20.1875 25.984375 -17.46875 L 20.296875 -17.46875 C 19.828125 -18.726562 19.082031 -19.710938 18.0625 -20.421875 C 17.050781 -21.140625 15.769531 -21.5 14.21875 -21.5 C 12.0625 -21.5 10.34375 -20.734375 9.0625 -19.203125 C 7.78125 -17.671875 7.140625 -15.53125 7.140625 -12.78125 C 7.140625 -10.03125 7.78125 -7.882812 9.0625 -6.34375 C 10.34375 -4.800781 12.0625 -4.03125 14.21875 -4.03125 C 17.28125 -4.03125 19.304688 -5.375 20.296875 -8.0625 L 25.984375 -8.0625 C 25.242188 -5.46875 23.851562 -3.40625 21.8125 -1.875 C 19.78125 -0.34375 17.25 0.421875 14.21875 0.421875 C 11.78125 0.421875 9.617188 -0.125 7.734375 -1.21875 C 5.847656 -2.320312 4.375 -3.867188 3.3125 -5.859375 C 2.25 -7.847656 1.71875 -10.15625 1.71875 -12.78125 Z M 1.71875 -12.78125 "/></g></g></g><g fill="#ffffff" fill-opacity="1"><g transform="translate(201.717999, 164.109112)"><g><path d="M 9.640625 -21.21875 L 9.640625 -7.09375 C 9.640625 -6.132812 9.863281 -5.445312 10.3125 -5.03125 C 10.757812 -4.613281 11.519531 -4.40625 12.59375 -4.40625 L 15.84375 -4.40625 L 15.84375 0 L 11.671875 0 C 9.296875 0 7.472656 -0.550781 6.203125 -1.65625 C 4.941406 -2.769531 4.3125 -4.582031 4.3125 -7.09375 L 4.3125 -21.21875 L 1.296875 -21.21875 L 1.296875 -25.53125 L 4.3125 -25.53125 L 4.3125 -31.875 L 9.640625 -31.875 L 9.640625 -25.53125 L 15.84375 -25.53125 L 15.84375 -21.21875 Z M 9.640625 -21.21875 "/></g></g></g><g fill="#ffffff" fill-opacity="1"><g transform="translate(218.949757, 164.109112)"><g><path d="M 8.75 -21.828125 C 9.53125 -23.117188 10.5625 -24.125 11.84375 -24.84375 C 13.125 -25.570312 14.644531 -25.9375 16.40625 -25.9375 L 16.40625 -20.484375 L 15.0625 -20.484375 C 12.988281 -20.484375 11.414062 -19.957031 10.34375 -18.90625 C 9.28125 -17.851562 8.75 -16.03125 8.75 -13.4375 L 8.75 0 L 3.46875 0 L 3.46875 -25.53125 L 8.75 -25.53125 Z M 8.75 -21.828125 "/></g></g></g><g fill="#ffffff" fill-opacity="1"><g transform="translate(236.737382, 164.109112)"><g><path d="M 14.546875 0.421875 C 12.140625 0.421875 9.960938 -0.125 8.015625 -1.21875 C 6.066406 -2.320312 4.535156 -3.867188 3.421875 -5.859375 C 2.316406 -7.847656 1.765625 -10.15625 1.765625 -12.78125 C 1.765625 -15.375 2.332031 -17.675781 3.46875 -19.6875 C 4.613281 -21.695312 6.175781 -23.238281 8.15625 -24.3125 C 10.132812 -25.394531 12.34375 -25.9375 14.78125 -25.9375 C 17.21875 -25.9375 19.425781 -25.394531 21.40625 -24.3125 C 23.382812 -23.238281 24.941406 -21.695312 26.078125 -19.6875 C 27.222656 -17.675781 27.796875 -15.375 27.796875 -12.78125 C 27.796875 -10.1875 27.207031 -7.882812 26.03125 -5.875 C 24.863281 -3.875 23.265625 -2.320312 21.234375 -1.21875 C 19.210938 -0.125 16.984375 0.421875 14.546875 0.421875 Z M 14.546875 -4.171875 C 15.898438 -4.171875 17.171875 -4.492188 18.359375 -5.140625 C 19.554688 -5.785156 20.523438 -6.753906 21.265625 -8.046875 C 22.003906 -9.347656 22.375 -10.925781 22.375 -12.78125 C 22.375 -14.632812 22.019531 -16.203125 21.3125 -17.484375 C 20.601562 -18.765625 19.660156 -19.726562 18.484375 -20.375 C 17.304688 -21.03125 16.039062 -21.359375 14.6875 -21.359375 C 13.320312 -21.359375 12.0625 -21.03125 10.90625 -20.375 C 9.75 -19.726562 8.832031 -18.765625 8.15625 -17.484375 C 7.476562 -16.203125 7.140625 -14.632812 7.140625 -12.78125 C 7.140625 -10.03125 7.835938 -7.90625 9.234375 -6.40625 C 10.640625 -4.914062 12.410156 -4.171875 14.546875 -4.171875 Z M 14.546875 -4.171875 "/></g></g></g><g fill="#ffffff" fill-opacity="1"><g transform="translate(266.290776, 164.109112)"><g><path d="M 16.359375 -25.9375 C 18.359375 -25.9375 20.15625 -25.519531 21.75 -24.6875 C 23.34375 -23.851562 24.585938 -22.617188 25.484375 -20.984375 C 26.378906 -19.347656 26.828125 -17.375 26.828125 -15.0625 L 26.828125 0 L 21.59375 0 L 21.59375 -14.265625 C 21.59375 -16.554688 21.019531 -18.3125 19.875 -19.53125 C 18.726562 -20.75 17.171875 -21.359375 15.203125 -21.359375 C 13.222656 -21.359375 11.648438 -20.75 10.484375 -19.53125 C 9.328125 -18.3125 8.75 -16.554688 8.75 -14.265625 L 8.75 0 L 3.46875 0 L 3.46875 -25.53125 L 8.75 -25.53125 L 8.75 -22.609375 C 9.613281 -23.660156 10.71875 -24.476562 12.0625 -25.0625 C 13.40625 -25.644531 14.835938 -25.9375 16.359375 -25.9375 Z M 16.359375 -25.9375 "/></g></g></g><g fill="#ffffff" fill-opacity="1"><g transform="translate(296.353714, 164.109112)"><g><path d="M 6.15625 -28.90625 C 5.195312 -28.90625 4.394531 -29.226562 3.75 -29.875 C 3.101562 -30.53125 2.78125 -31.335938 2.78125 -32.296875 C 2.78125 -33.253906 3.101562 -34.054688 3.75 -34.703125 C 4.394531 -35.347656 5.195312 -35.671875 6.15625 -35.671875 C 7.082031 -35.671875 7.867188 -35.347656 8.515625 -34.703125 C 9.171875 -34.054688 9.5 -33.253906 9.5 -32.296875 C 9.5 -31.335938 9.171875 -30.53125 8.515625 -29.875 C 7.867188 -29.226562 7.082031 -28.90625 6.15625 -28.90625 Z M 8.75 -25.53125 L 8.75 0 L 3.46875 0 L 3.46875 -25.53125 Z M 8.75 -25.53125 "/></g></g></g><g fill="#ffffff" fill-opacity="1"><g transform="translate(308.582704, 164.109112)"><g><path d="M 1.71875 -12.78125 C 1.71875 -15.40625 2.25 -17.710938 3.3125 -19.703125 C 4.375 -21.703125 5.847656 -23.238281 7.734375 -24.3125 C 9.617188 -25.394531 11.78125 -25.9375 14.21875 -25.9375 C 17.3125 -25.9375 19.867188 -25.203125 21.890625 -23.734375 C 23.910156 -22.273438 25.273438 -20.1875 25.984375 -17.46875 L 20.296875 -17.46875 C 19.828125 -18.726562 19.082031 -19.710938 18.0625 -20.421875 C 17.050781 -21.140625 15.769531 -21.5 14.21875 -21.5 C 12.0625 -21.5 10.34375 -20.734375 9.0625 -19.203125 C 7.78125 -17.671875 7.140625 -15.53125 7.140625 -12.78125 C 7.140625 -10.03125 7.78125 -7.882812 9.0625 -6.34375 C 10.34375 -4.800781 12.0625 -4.03125 14.21875 -4.03125 C 17.28125 -4.03125 19.304688 -5.375 20.296875 -8.0625 L 25.984375 -8.0625 C 25.242188 -5.46875 23.851562 -3.40625 21.8125 -1.875 C 19.78125 -0.34375 17.25 0.421875 14.21875 0.421875 C 11.78125 0.421875 9.617188 -0.125 7.734375 -1.21875 C 5.847656 -2.320312 4.375 -3.867188 3.3125 -5.859375 C 2.25 -7.847656 1.71875 -10.15625 1.71875 -12.78125 Z M 1.71875 -12.78125 "/></g></g></g><g fill="#ffffff" fill-opacity="1"><g transform="translate(336.375863, 164.109112)"><g><path d="M 12.734375 0.421875 C 10.734375 0.421875 8.9375 0.0546875 7.34375 -0.671875 C 5.75 -1.398438 4.488281 -2.390625 3.5625 -3.640625 C 2.632812 -4.890625 2.140625 -6.285156 2.078125 -7.828125 L 7.546875 -7.828125 C 7.640625 -6.742188 8.15625 -5.835938 9.09375 -5.109375 C 10.039062 -4.390625 11.222656 -4.03125 12.640625 -4.03125 C 14.128906 -4.03125 15.28125 -4.316406 16.09375 -4.890625 C 16.914062 -5.460938 17.328125 -6.195312 17.328125 -7.09375 C 17.328125 -8.050781 16.867188 -8.757812 15.953125 -9.21875 C 15.046875 -9.6875 13.601562 -10.195312 11.625 -10.75 C 9.707031 -11.269531 8.144531 -11.773438 6.9375 -12.265625 C 5.738281 -12.765625 4.695312 -13.523438 3.8125 -14.546875 C 2.9375 -15.566406 2.5 -16.910156 2.5 -18.578125 C 2.5 -19.929688 2.898438 -21.171875 3.703125 -22.296875 C 4.503906 -23.429688 5.65625 -24.320312 7.15625 -24.96875 C 8.65625 -25.613281 10.378906 -25.9375 12.328125 -25.9375 C 15.222656 -25.9375 17.554688 -25.203125 19.328125 -23.734375 C 21.109375 -22.273438 22.0625 -20.28125 22.1875 -17.75 L 16.90625 -17.75 C 16.8125 -18.882812 16.347656 -19.789062 15.515625 -20.46875 C 14.679688 -21.15625 13.554688 -21.5 12.140625 -21.5 C 10.742188 -21.5 9.675781 -21.234375 8.9375 -20.703125 C 8.195312 -20.179688 7.828125 -19.488281 7.828125 -18.625 C 7.828125 -17.945312 8.070312 -17.375 8.5625 -16.90625 C 9.0625 -16.445312 9.664062 -16.082031 10.375 -15.8125 C 11.082031 -15.550781 12.132812 -15.222656 13.53125 -14.828125 C 15.382812 -14.328125 16.90625 -13.820312 18.09375 -13.3125 C 19.28125 -12.8125 20.304688 -12.066406 21.171875 -11.078125 C 22.035156 -10.085938 22.484375 -8.773438 22.515625 -7.140625 C 22.515625 -5.679688 22.113281 -4.378906 21.3125 -3.234375 C 20.507812 -2.097656 19.375 -1.203125 17.90625 -0.546875 C 16.4375 0.0976562 14.710938 0.421875 12.734375 0.421875 Z M 12.734375 0.421875 "/></g></g></g><g fill="#ffffff" fill-opacity="1"><g transform="translate(108.250554, 205.101702)"><g><path d="M 1.15625 -10.859375 C 1.15625 -12.960938 1.644531 -14.851562 2.625 -16.53125 C 3.613281 -18.21875 4.953125 -19.53125 6.640625 -20.46875 C 8.328125 -21.414062 10.175781 -21.890625 12.1875 -21.890625 C 14.488281 -21.890625 16.535156 -21.320312 18.328125 -20.1875 C 20.117188 -19.0625 21.421875 -17.460938 22.234375 -15.390625 L 17.96875 -15.390625 C 17.40625 -16.535156 16.625 -17.382812 15.625 -17.9375 C 14.632812 -18.5 13.488281 -18.78125 12.1875 -18.78125 C 10.757812 -18.78125 9.484375 -18.457031 8.359375 -17.8125 C 7.242188 -17.175781 6.367188 -16.253906 5.734375 -15.046875 C 5.097656 -13.847656 4.78125 -12.453125 4.78125 -10.859375 C 4.78125 -9.253906 5.097656 -7.847656 5.734375 -6.640625 C 6.367188 -5.441406 7.242188 -4.515625 8.359375 -3.859375 C 9.484375 -3.210938 10.757812 -2.890625 12.1875 -2.890625 C 13.488281 -2.890625 14.632812 -3.171875 15.625 -3.734375 C 16.625 -4.296875 17.40625 -5.144531 17.96875 -6.28125 L 22.234375 -6.28125 C 21.421875 -4.207031 20.117188 -2.609375 18.328125 -1.484375 C 16.535156 -0.367188 14.488281 0.1875 12.1875 0.1875 C 10.15625 0.1875 8.300781 -0.28125 6.625 -1.21875 C 4.945312 -2.164062 3.613281 -3.476562 2.625 -5.15625 C 1.644531 -6.84375 1.15625 -8.742188 1.15625 -10.859375 Z M 1.15625 -10.859375 "/></g></g></g><g fill="#ffffff" fill-opacity="1"><g transform="translate(132.284899, 205.101702)"><g><path d="M 18.03125 -8.984375 C 18.03125 -8.335938 17.988281 -7.757812 17.90625 -7.25 L 4.8125 -7.25 C 4.914062 -5.875 5.425781 -4.769531 6.34375 -3.9375 C 7.257812 -3.113281 8.378906 -2.703125 9.703125 -2.703125 C 11.609375 -2.703125 12.957031 -3.5 13.75 -5.09375 L 17.5625 -5.09375 C 17.050781 -3.519531 16.113281 -2.226562 14.75 -1.21875 C 13.394531 -0.21875 11.710938 0.28125 9.703125 0.28125 C 8.066406 0.28125 6.597656 -0.0820312 5.296875 -0.8125 C 4.003906 -1.550781 2.988281 -2.585938 2.25 -3.921875 C 1.519531 -5.265625 1.15625 -6.816406 1.15625 -8.578125 C 1.15625 -10.335938 1.507812 -11.882812 2.21875 -13.21875 C 2.9375 -14.5625 3.941406 -15.59375 5.234375 -16.3125 C 6.535156 -17.039062 8.023438 -17.40625 9.703125 -17.40625 C 11.316406 -17.40625 12.753906 -17.050781 14.015625 -16.34375 C 15.285156 -15.644531 16.269531 -14.65625 16.96875 -13.375 C 17.675781 -12.101562 18.03125 -10.640625 18.03125 -8.984375 Z M 14.328125 -10.109375 C 14.304688 -11.410156 13.835938 -12.453125 12.921875 -13.234375 C 12.015625 -14.023438 10.890625 -14.421875 9.546875 -14.421875 C 8.328125 -14.421875 7.28125 -14.03125 6.40625 -13.25 C 5.53125 -12.476562 5.007812 -11.429688 4.84375 -10.109375 Z M 14.328125 -10.109375 "/></g></g></g><g fill="#ffffff" fill-opacity="1"><g transform="translate(151.468843, 205.101702)"><g><path d="M 10.96875 -17.40625 C 12.320312 -17.40625 13.53125 -17.125 14.59375 -16.5625 C 15.664062 -16.007812 16.5 -15.179688 17.09375 -14.078125 C 17.695312 -12.984375 18 -11.660156 18 -10.109375 L 18 0 L 14.484375 0 L 14.484375 -9.578125 C 14.484375 -11.109375 14.097656 -12.28125 13.328125 -13.09375 C 12.566406 -13.914062 11.523438 -14.328125 10.203125 -14.328125 C 8.867188 -14.328125 7.8125 -13.914062 7.03125 -13.09375 C 6.257812 -12.28125 5.875 -11.109375 5.875 -9.578125 L 5.875 0 L 2.328125 0 L 2.328125 -17.125 L 5.875 -17.125 L 5.875 -15.171875 C 6.457031 -15.878906 7.195312 -16.425781 8.09375 -16.8125 C 9 -17.207031 9.957031 -17.40625 10.96875 -17.40625 Z M 10.96875 -17.40625 "/></g></g></g><g fill="#ffffff" fill-opacity="1"><g transform="translate(171.647734, 205.101702)"><g><path d="M 6.46875 -14.234375 L 6.46875 -4.75 C 6.46875 -4.113281 6.617188 -3.65625 6.921875 -3.375 C 7.222656 -3.09375 7.734375 -2.953125 8.453125 -2.953125 L 10.640625 -2.953125 L 10.640625 0 L 7.828125 0 C 6.234375 0 5.007812 -0.367188 4.15625 -1.109375 C 3.3125 -1.859375 2.890625 -3.070312 2.890625 -4.75 L 2.890625 -14.234375 L 0.875 -14.234375 L 0.875 -17.125 L 2.890625 -17.125 L 2.890625 -21.390625 L 6.46875 -21.390625 L 6.46875 -17.125 L 10.640625 -17.125 L 10.640625 -14.234375 Z M 6.46875 -14.234375 "/></g></g></g><g fill="#ffffff" fill-opacity="1"><g transform="translate(183.214071, 205.101702)"><g><path d="M 5.875 -14.640625 C 6.394531 -15.515625 7.082031 -16.191406 7.9375 -16.671875 C 8.800781 -17.160156 9.820312 -17.40625 11 -17.40625 L 11 -13.75 L 10.109375 -13.75 C 8.710938 -13.75 7.65625 -13.394531 6.9375 -12.6875 C 6.226562 -11.976562 5.875 -10.753906 5.875 -9.015625 L 5.875 0 L 2.328125 0 L 2.328125 -17.125 L 5.875 -17.125 Z M 5.875 -14.640625 "/></g></g></g><g fill="#ffffff" fill-opacity="1"><g transform="translate(195.153509, 205.101702)"><g><path d="M 1.15625 -8.640625 C 1.15625 -10.359375 1.507812 -11.878906 2.21875 -13.203125 C 2.9375 -14.535156 3.910156 -15.566406 5.140625 -16.296875 C 6.378906 -17.035156 7.742188 -17.40625 9.234375 -17.40625 C 10.578125 -17.40625 11.75 -17.140625 12.75 -16.609375 C 13.757812 -16.085938 14.566406 -15.429688 15.171875 -14.640625 L 15.171875 -17.125 L 18.75 -17.125 L 18.75 0 L 15.171875 0 L 15.171875 -2.546875 C 14.566406 -1.742188 13.742188 -1.070312 12.703125 -0.53125 C 11.671875 0.0078125 10.492188 0.28125 9.171875 0.28125 C 7.703125 0.28125 6.351562 -0.09375 5.125 -0.84375 C 3.90625 -1.601562 2.9375 -2.660156 2.21875 -4.015625 C 1.507812 -5.378906 1.15625 -6.921875 1.15625 -8.640625 Z M 15.171875 -8.578125 C 15.171875 -9.765625 14.925781 -10.789062 14.4375 -11.65625 C 13.957031 -12.53125 13.320312 -13.191406 12.53125 -13.640625 C 11.738281 -14.097656 10.890625 -14.328125 9.984375 -14.328125 C 9.066406 -14.328125 8.210938 -14.101562 7.421875 -13.65625 C 6.640625 -13.21875 6.003906 -12.566406 5.515625 -11.703125 C 5.023438 -10.847656 4.78125 -9.828125 4.78125 -8.640625 C 4.78125 -7.460938 5.023438 -6.425781 5.515625 -5.53125 C 6.003906 -4.644531 6.644531 -3.96875 7.4375 -3.5 C 8.238281 -3.03125 9.085938 -2.796875 9.984375 -2.796875 C 10.890625 -2.796875 11.738281 -3.023438 12.53125 -3.484375 C 13.320312 -3.941406 13.957031 -4.609375 14.4375 -5.484375 C 14.925781 -6.367188 15.171875 -7.398438 15.171875 -8.578125 Z M 15.171875 -8.578125 "/></g></g></g><g fill="#ffffff" fill-opacity="1"><g transform="translate(216.234085, 205.101702)"><g><path d="M 5.875 -23.015625 L 5.875 0 L 2.328125 0 L 2.328125 -23.015625 Z M 5.875 -23.015625 "/></g></g></g></svg>